<svg width="68" height="90" viewBox="0 0 68 90" currentColor="#f00" fill="none" xmlns="http://www.w3.org/2000/svg">
<path d="M66.1259 39.4423C65.0113 17.2283 58.0377 12.5905 48.276 6.40135C38.5176 0.218804 14.5324 2.74818 14.5324 2.74818C7.98956 3.17582 4.49454 6.26544 3.23857 10.3396C1.9826 14.4171 1.84451 28.0552 1.70313 29.4608C1.56504 30.8663 4.63263 34.5228 5.18828 37.755C5.74722 40.9872 5.18828 45.2072 5.18828 47.8791C5.18828 50.551 10.0675 61.9382 10.7645 64.7494C11.4616 67.5605 15.6438 73.4646 16.0646 74.8735C16.4822 76.2791 19.6911 83.3103 19.6911 83.3103C19.6911 83.3103 25.2674 90.3415 36.9821 85.5612C48.6936 80.7809 59.8493 69.6755 61.2434 66.5826C62.6408 63.4863 67.2405 61.6564 66.1259 39.4423ZM10.7317 38.9285C9.29156 39.207 7.60159 38.4246 7.10183 37.6986C6.60207 36.9726 6.85195 36.7771 6.85195 36.7771C7.12814 36.1903 7.84818 35.9682 10.3963 36.1339C12.9444 36.303 15.3281 36.4124 15.1867 36.9726C15.0519 37.5329 12.1717 38.6501 10.7317 38.9285ZM40.5922 37.2809C39.1784 38.1196 36.2719 38.5937 36.2719 38.5937C34.7496 38.5937 33.3358 38.3716 32.0338 38.0633C30.7318 37.755 30.1795 37.1682 29.9296 36.4986C29.6797 35.829 30.5938 34.9902 31.2053 34.5991C31.8136 34.2079 35.1935 34.5162 37.6857 34.5991C40.1779 34.682 42.0915 35.0466 42.4499 35.4643C42.8082 35.8853 42.006 36.4422 40.5922 37.2809Z" fill="currentColor"/>
</svg>
